<?xml version="1.0" standalone="no"?>
<!DOCTYPE svg PUBLIC "-//W3C//DTD SVG 20010904//EN"
 "http://www.w3.org/TR/2001/REC-SVG-20010904/DTD/svg10.dtd">
<svg version="1.0" xmlns="http://www.w3.org/2000/svg"
 width="180.000000pt" height="180.000000pt" viewBox="0 0 180.000000 180.000000"
 preserveAspectRatio="xMidYMid meet">
<metadata>
Created by potrace 1.11, written by Peter Selinger 2001-2013
</metadata>
<g transform="translate(0.000000,180.000000) scale(0.100000,-0.100000)"
fill="#000000" stroke="none">
<path d="M365 1586 c-30 -23 -9 -52 36 -48 48 4 85 -33 119 -123 8 -21 1 -17
-50 24 -116 93 -209 88 -260 -15 -40 -81 -18 -235 43 -306 27 -31 82 -57 110
-53 14 3 17 -1 11 -13 -4 -9 -9 -36 -12 -60 -4 -37 0 -46 28 -72 27 -25 40
-30 82 -30 45 0 54 4 89 39 l38 38 23 -27 c32 -38 64 -52 107 -47 53 6 81 24
97 63 12 28 12 39 0 73 l-13 39 36 7 c53 10 87 39 118 103 23 48 28 70 28 137
0 67 -4 87 -25 123 -28 50 -63 72 -114 72 -49 0 -76 -12 -141 -65 -61 -50 -65
-45 -24 36 24 47 42 61 82 61 47 0 65 12 51 35 -9 14 -24 18 -62 18 -74 -1
-110 -38 -152 -159 l-17 -48 -19 48 c-25 68 -57 117 -89 138 -39 25 -95 31
-120 12z"/>
<path d="M1215 1389 c-98 -35 -145 -75 -177 -148 -41 -96 -20 -205 57 -290 36
-39 36 -41 14 -41 -37 0 -89 -37 -104 -74 -26 -63 8 -150 72 -184 28 -15 38
-1 35 46 -4 45 5 70 29 82 18 10 19 8 17 -32 -3 -62 25 -112 75 -137 22 -11
43 -18 46 -16 3 3 5 40 5 82 1 59 5 78 18 86 12 8 21 7 33 -3 14 -12 16 -26
12 -87 -6 -72 -6 -73 18 -73 30 0 79 41 95 79 7 17 10 49 8 71 -4 44 -1 47 27
26 14 -10 19 -28 21 -67 1 -30 2 -57 3 -61 3 -19 60 18 84 54 32 49 36 115 11
154 -19 28 -63 54 -94 54 -27 0 -26 3 15 47 50 54 68 99 71 174 5 107 -44 188
-144 239 -50 26 -196 37 -247 19z m45 -465 c0 -48 -74 -56 -86 -9 -7 29 1 44
30 55 27 10 56 -14 56 -46z m191 18 c8 -21 6 -30 -10 -46 -17 -17 -24 -18 -46
-8 -34 15 -35 64 -2 79 29 13 46 6 58 -25z"/>
<path d="M758 725 c-4 -4 -91 -15 -162 -21 -150 -12 -278 -80 -321 -171 -57
-118 40 -273 200 -322 85 -27 377 -41 427 -21 70 28 105 90 78 140 -14 26 -5
38 18 24 70 -43 119 -64 152 -66 69 -2 86 33 54 112 -15 38 -15 45 1 96 19 60
11 103 -20 105 -8 1 -21 2 -27 3 -24 4 -73 -17 -121 -50 -26 -19 -51 -34 -56
-34 -20 0 -22 22 -5 41 38 42 10 119 -53 146 -31 12 -156 26 -165 18z m-306
-207 c25 -21 28 -54 6 -77 -32 -35 -79 -21 -91 26 -11 47 46 81 85 51z"/>
</g>
</svg>
